<?xml version="1.0" standalone="no"?><!DOCTYPE svg PUBLIC "-//W3C//DTD SVG 1.1//EN" "http://www.w3.org/Graphics/SVG/1.1/DTD/svg11.dtd"><svg t="1491968674003" class="icon" style="" viewBox="0 0 1024 1024" version="1.1" xmlns="http://www.w3.org/2000/svg" p-id="6180" xmlns:xlink="http://www.w3.org/1999/xlink" width="32" height="32"><defs><style type="text/css"></style></defs><path d="M63.488 489.472c0 0-12.288 12.837888-12.288 22.528 0 9.689088 12.288 22.465536 12.288 22.465536l432.60416 432.333824c8.000512 8.000512 20.967424 8.000512 28.962816 0l7.240704-7.237632c7.998464-8.000512 7.998464-20.968448 0-28.96384L139.297792 537.6 952.32 537.6c11.311104 0 20.48-9.167872 20.48-20.48l0-10.24c0-11.31008-9.168896-20.48-20.48-20.48L139.297792 486.4 532.29568 93.402112c7.998464-7.998464 7.998464-20.965376 0-28.962816l-7.23968-7.240704c-7.998464-7.998464-20.9664-7.998464-28.96384 0L63.488 489.472" p-id="6181" fill="#ffffff"></path></svg>