<?xml version="1.0" standalone="no"?><!DOCTYPE svg PUBLIC "-//W3C//DTD SVG 1.1//EN" "http://www.w3.org/Graphics/SVG/1.1/DTD/svg11.dtd"><svg t="1491461692694" class="icon" style="" viewBox="0 0 1024 1024" version="1.1" xmlns="http://www.w3.org/2000/svg" p-id="5475" xmlns:xlink="http://www.w3.org/1999/xlink" width="32" height="32"><defs><style type="text/css"></style></defs><path d="M72.84022 343.655339 955.880514 343.655339 955.880514 335.942459C955.880514 283.337982 955.894606 230.733505 955.871119 178.129028 955.861725 153.750312 942.21622 140.04844 918.011303 140.029651 896.403963 140.010862 874.796624 140.222239 853.193982 139.916917 835.428991 139.667963 821.858642 126.637798 819.970349 108.750679 818.274642 92.714275 829.407119 77.218055 845.791119 73.183119 849.159046 72.356404 852.757138 72.215486 856.25189 72.201394 877.624367 72.116844 898.992147 72.060477 920.364624 72.177908 979.263413 72.511413 1023.704073 116.966165 1023.713468 175.794495 1023.765138 423.790385 1023.76044 671.781578 1023.718165 919.777468 1023.708771 978.765505 978.779596 1023.464514 919.63655 1023.469211 649.333431 1023.492697 379.030312 1023.488 108.722495 1023.473908 49.076844 1023.469211 4.551633 978.99567 4.532844 919.303046 4.485872 745.049248 4.514055 570.79545 4.514055 396.541651 4.514055 323.048514 4.467083 249.555376 4.528147 176.062239 4.570422 122.400881 40.344661 80.600073 93.461138 73.07978 105.918239 71.318312 118.769908 72.290642 131.443083 72.187303 145.534826 72.069872 159.626569 72.036991 173.713615 72.196697 193.376294 72.417468 207.928367 86.701798 208.073982 105.688073 208.224294 125.017248 193.639339 139.766606 173.741798 139.959193 151.669431 140.170569 129.592367 139.949798 107.515303 140.053138 87.190312 140.147083 72.530202 154.262312 72.46444 174.390018 72.281248 229.108257 72.389284 283.826495 72.403376 338.544734 72.417468 340.127706 72.671119 341.710679 72.84022 343.655339L72.84022 343.655339ZM955.885211 412.352587 72.398679 412.352587 72.398679 419.727266C72.398679 585.516624 72.389284 751.305982 72.408073 917.095339 72.408073 942.296073 85.851596 955.626862 111.216734 955.626862 379.861725 955.636257 648.506716 955.636257 917.151706 955.626862 942.258495 955.626862 955.880514 941.981358 955.885211 916.874569 955.894606 751.320073 955.889908 585.765578 955.889908 420.211083 955.885211 417.693358 955.885211 415.175633 955.885211 412.352587L955.885211 412.352587Z" p-id="5476" fill="#743216"></path><path d="M513.944661 72.163817C536.01233 72.163817 558.084697 72.098055 580.152367 72.182606 600.928294 72.262459 616.31178 87.030606 616.062826 106.472514 615.813872 125.637284 600.576 139.96389 580.039633 140.001468 535.195009 140.076624 490.350385 140.156477 445.505761 139.91222 428.111853 139.818275 413.944954 126.426422 412.282128 109.521028 410.600514 92.427743 421.761174 76.809394 438.657174 72.999927 442.04389 72.234275 445.641982 72.210789 449.146128 72.201394 470.744073 72.130936 492.346716 72.163817 513.944661 72.163817L513.944661 72.163817Z" p-id="5477" fill="#743216"></path><path d="M751.860257 106.486606C751.860257 128.319413 751.911927 150.15222 751.846165 171.985028 751.785101 193.033394 737.533651 207.92367 717.683083 207.82033 698.189505 207.721688 684.088367 192.883083 684.060183 172.172917 683.999119 128.037578 683.989725 83.902239 684.060183 39.766899 684.093064 19.089615 698.250569 4.33556 717.842789 4.265101 737.359853 4.194642 751.75222 19.047339 751.836771 39.574312 751.935413 61.881541 751.860257 84.184073 751.860257 106.486606L751.860257 106.486606Z" p-id="5478" fill="#743216"></path><path d="M344.294165 106.139009C344.294165 128.441541 344.444477 150.744073 344.242495 173.041908 344.11567 187.110165 337.948183 198.064147 325.20455 204.353761 313.339303 210.211229 301.445872 209.243596 290.54356 201.605872 281.299376 195.128367 276.390752 185.917064 276.362569 174.634275 276.231046 128.859596 276.010275 83.08022 276.461211 37.310239 276.653798 18.028037 291.722569 4.152367 310.473982 4.274495 329.305248 4.396624 343.955963 18.953394 344.223706 38.531523 344.529028 61.06422 344.294165 83.601615 344.294165 106.139009L344.294165 106.139009Z" p-id="5479" fill="#743216"></path></svg>