<?xml version="1.0" standalone="no"?><!DOCTYPE svg PUBLIC "-//W3C//DTD SVG 1.1//EN" "http://www.w3.org/Graphics/SVG/1.1/DTD/svg11.dtd"><svg t="1491528883150" class="icon" style="" viewBox="0 0 1024 1024" version="1.1" xmlns="http://www.w3.org/2000/svg" p-id="2386" xmlns:xlink="http://www.w3.org/1999/xlink" width="32" height="32"><defs><style type="text/css"></style></defs><path d="M986.406 305.878H39.168c-12.192 0-22.081-9.888-22.081-22.081s9.889-22.081 22.081-22.081h947.238c12.193 0 22.082 9.888 22.082 22.081s-9.888 22.081-22.082 22.081zM986.406 534.082H39.168c-12.192 0-22.081-9.889-22.081-22.082 0-12.193 9.889-22.081 22.081-22.081h947.238c12.193 0 22.082 9.888 22.082 22.081s-9.888 22.082-22.082 22.082zM986.406 762.285H39.168c-12.192 0-22.081-9.891-22.081-22.082 0-12.193 9.889-22.08 22.081-22.08h947.238c12.193 0 22.082 9.887 22.082 22.08 0 12.192-9.888 22.082-22.082 22.082z" p-id="2387" fill="#ffffff"></path></svg>