<?xml version="1.0" standalone="no"?><!DOCTYPE svg PUBLIC "-//W3C//DTD SVG 1.1//EN" "http://www.w3.org/Graphics/SVG/1.1/DTD/svg11.dtd"><svg t="1491463042789" class="icon" style="" viewBox="0 0 1024 1024" version="1.1" xmlns="http://www.w3.org/2000/svg" p-id="7454" xmlns:xlink="http://www.w3.org/1999/xlink" width="32" height="32"><defs><style type="text/css"></style></defs><path d="M512 0c-282.752 0-512 229.248-512 512s229.248 512 512 512 512-229.248 512-512-229.248-512-512-512zM512 938.688c-235.264 0-426.688-191.424-426.688-426.688s191.424-426.688 426.688-426.688 426.688 191.424 426.688 426.688-191.424 426.688-426.688 426.688zM701.76 217.792c-21.056-10.496-46.72-1.984-57.28 19.072l-144.192 288.384-86.208-86.144c-16.704-16.704-43.648-16.704-60.352 0s-16.704 43.648 0 60.352l128 128c8.128 8.128 18.944 12.544 30.208 12.544 2.24 0 4.544-0.192 6.848-0.576 13.504-2.24 25.152-10.816 31.296-23.04l170.688-341.312c10.56-21.056 1.984-46.656-19.072-57.28zM469.44 810.56h85.312v42.752h-85.312zM469.44 128h85.312v42.752h-85.312zM128 469.248h85.312v42.752h-85.312zM810.56 469.248h85.312v42.752h-85.312z" p-id="7455" fill="#743216"></path></svg>