<?xml version="1.0" standalone="no"?><!DOCTYPE svg PUBLIC "-//W3C//DTD SVG 1.1//EN" "http://www.w3.org/Graphics/SVG/1.1/DTD/svg11.dtd"><svg t="1491450426433" class="icon" style="" viewBox="0 0 1024 1024" version="1.1" xmlns="http://www.w3.org/2000/svg" p-id="3931" xmlns:xlink="http://www.w3.org/1999/xlink" width="16" height="16"><defs><style type="text/css"></style></defs><path d="M980.75 645.248c0-75.156-51.891-138.153-121.762-155.164-2.968-117.829-99.296-212.459-217.769-212.459-69.39 0-131.164 32.496-171.070 83.068-22.377-28.928-57.395-47.571-96.779-47.571-67.575 0-122.353 54.817-122.353 122.426 0 5.892 0.44 11.682 1.249 17.353-10.274-1.853-20.843-2.873-31.65-2.873-97.959-0.002-177.367 79.455-177.367 177.468 0 98.018 79.407 177.473 177.366 177.473l600.826-0.011c88.017-0.169 159.309-71.605 159.309-159.71z" p-id="3932" fill="#1296db"></path></svg>