<svg width="800" height="600" xmlns="http://www.w3.org/2000/svg">

 <g>
  <title>background</title>
  <rect fill="#73b3f4" id="canvas_background" height="602" width="802" y="-1" x="-1"/>
 </g>
 <g>
  <title>Layer 1</title>
  <g stroke="null" id="svg_1">
   <path stroke="null" id="svg_2" fill="#95A5A5" d="m367.124135,41.378927c-15.708373,0 -30.188839,3.848439 -41.851595,10.345318c0,-28.562124 -31.23501,-51.724245 -69.752131,-51.724245c-34.275544,0 -62.790825,18.341025 -68.650649,42.507443c-12.596725,-13.396882 -33.202508,-21.816808 -56.904136,-21.816808c-38.517121,0 -69.752131,23.162121 -69.752131,51.724245c0,11.689459 5.230857,22.469543 14.047458,31.137906l328.058475,-0.092578l25.808194,-34.94533c-11.82869,-16.087508 -34.553681,-27.135951 -61.003484,-27.135951"/>
   <path stroke="null" id="svg_3" fill="#ECF0F1" d="m715.884792,403.448643c-46.23224,0 -83.70319,-27.786342 -83.70319,-62.069563c0,-26.937904 23.184864,-49.800025 55.53716,-58.386358l-208.990901,-282.992722l-320.860121,434.483424l641.718661,0l-32.532452,-44.059007c-14.159661,8.130473 -31.87662,13.024225 -51.169157,13.024225"/>
   <path stroke="null" id="svg_4" fill="#805333" d="m715.884792,517.241279c-7.700896,0 -13.951058,-4.634768 -13.951058,-10.345318l0,-103.44849c0,-5.71055 6.250163,-10.345318 13.951058,-10.345318c7.700896,0 13.951058,4.634768 13.951058,10.345318l0,103.44849c-0.00158,5.711722 -6.251743,10.345318 -13.951058,10.345318"/>
   <path stroke="null" id="svg_5" fill="#4FBA6F" d="m799.586402,341.37908c0,34.283221 -37.47095,62.069563 -83.70319,62.069563s-83.70319,-27.786342 -83.70319,-62.069563c0,-34.283221 37.47095,-62.068391 83.70319,-62.068391s83.70319,27.786342 83.70319,62.068391"/>
   <path stroke="null" id="svg_6" fill="#805333" d="m74.166131,341.37908c-7.700896,0 -13.951058,-4.634768 -13.951058,-10.345318l0,-72.412537c0,-5.71055 6.250163,-10.345318 13.951058,-10.345318s13.951058,4.634768 13.951058,10.345318l0,72.413709c-0.00158,5.71055 -6.250163,10.344146 -13.951058,10.344146"/>
   <path stroke="null" id="svg_7" fill="#4FBA6F" d="m143.918263,206.89698c0,28.562124 -31.23501,51.724245 -69.752131,51.724245s-69.752131,-23.162121 -69.752131,-51.724245s31.23501,-51.724245 69.752131,-51.724245s69.752131,23.162121 69.752131,51.724245"/>
   <path stroke="null" id="svg_8" fill="#2C3E50" d="m534.528934,537.930742c0,-34.230486 -37.540484,-62.069563 -83.70319,-62.069563l-292.958004,0c-38.46181,0 -69.752131,-23.203137 -69.752131,-51.724245c0,-57.041045 62.582223,-103.44849 139.504263,-103.44849l14.284506,0l30.550732,-41.378927l-44.836818,0c-107.697177,0 -195.305336,64.965267 -195.305336,144.827417c0,51.330495 56.33206,93.103172 125.553204,93.103172l292.958004,0c15.387569,0 27.900537,9.278911 27.900537,20.689464c0,34.230486 37.540484,62.069563 83.70319,62.069563l237.156931,0l0,-41.378927l-237.15535,0c-15.387569,0.001172 -27.900537,-9.278911 -27.900537,-20.689464"/>
   <polygon stroke="null" id="svg_9" fill="#ECF0F1" points="478.7294616699219,206.89698252201197 520.5794677734375,144.82741569638165 643.2738647460938,222.8075326257931 618.2321166992188,188.9075226789737 478.7294616699219,0 339.22515869140625,188.9075226789737 314.1834411621094,222.8075326257931 436.87786865234375,144.82741569638165 "/>
   <path stroke="null" id="svg_10" fill="#95A5A5" d="m643.270703,222.811051l-122.694407,-77.978946l-41.851595,62.069563l-41.851595,-62.069563l-122.694407,77.978946l-72.151056,97.707472l194.845463,-72.237927l41.851595,62.069563l41.851595,-62.069563l135.096752,50.078932c8.85927,-6.796878 19.782436,-12.113678 32.044134,-15.372664l-44.446479,-60.175812z"/>
  </g>
  <g id="svg_11"/>
  <g id="svg_12"/>
  <g id="svg_13"/>
  <g id="svg_14"/>
  <g id="svg_15"/>
  <g id="svg_16"/>
  <g id="svg_17"/>
  <g id="svg_18"/>
  <g id="svg_19"/>
  <g id="svg_20"/>
  <g id="svg_21"/>
  <g id="svg_22"/>
  <g id="svg_23"/>
  <g id="svg_24"/>
  <g id="svg_25"/>
 </g>
</svg>