<svg width="800" height="600" xmlns="http://www.w3.org/2000/svg">

 <g>
  <title>background</title>
  <rect fill="#007fff" id="canvas_background" height="602" width="802" y="-1" x="-1"/>
 </g>
 <g>
  <title>Layer 1</title>
  <g stroke="null" id="svg_1">
   <rect stroke="null" id="svg_2" fill="#0FBC30" height="44.076512" width="772.124326" y="543.704629" x="13.176843"/>
   <path stroke="null" id="svg_3" fill="#FFD039" d="m610.144035,15.033666c48.754318,0 88.284846,38.87528 88.284846,86.860063c0,47.967497 -39.530528,86.842777 -88.284846,86.842777s-88.267276,-38.87528 -88.267276,-86.842777c0,-47.984783 39.512959,-86.860063 88.267276,-86.860063z"/>
   <polygon stroke="null" id="svg_4" fill="#999999" points="286.4153747558594,362.2319160355837 264.03228759765625,409.7326668214955 264.0147399902344,409.749978589447 237.25697326660156,390.73584222888167 158.21347045898438,538.5102965970727 49.37274932861328,538.5102965970727 49.37274932861328,533.5666171328776 163.92344665527344,290.6004656882069 203.01473999023438,310.59986890394066 247.93898010253906,280.6093698337136 "/>
   <polygon stroke="null" id="svg_5" fill="#999999" points="757.2151489257812,533.5666171328776 757.2151489257812,538.5102965970727 643.086181640625,538.5102965970727 588.9908447265625,437.40693154877954 571.8784790039062,449.55868977746286 542.959716796875,388.24672414923407 565.7820434570312,356.2338229056186 595.6670532226562,383.1820294113859 628.5916137695312,353.1051386034087 "/>
   <polygon stroke="null" id="svg_6" fill="#B3B3B3" points="571.8784790039062,449.55868977746286 588.9908447265625,437.40693154877954 643.086181640625,538.5102965970727 158.21347045898438,538.5102965970727 237.25697326660156,390.73584222888167 264.0147399902344,409.749978589447 264.03228759765625,409.7326668214955 286.4153747558594,362.2319160355837 354.9700927734375,216.86017129908942 355.8485412597656,217.25772368454636 371.6607666015625,269.114489595544 427.0035095214844,222.44340027564613 484.5775146484375,264.395495490302 542.959716796875,388.24672414923407 "/>
   <polygon stroke="null" id="svg_7" fill="#F2F2F2" points="598.3024291992188,310.59986890394066 628.5916137695312,353.1051386034087 595.6670532226562,383.1820294113859 565.7820434570312,356.2338229056186 "/>
   <polygon stroke="null" id="svg_8" fill="#F2F2F2" points="247.93898010253906,280.6093698337136 203.01473999023438,310.59986890394066 163.92344665527344,290.6004656882069 208.2854766845703,196.5150173201473 "/>
   <polygon stroke="null" id="svg_9" fill="#F2F2F2" points="408.5559387207031,103.17285539055229 484.5775146484375,264.395495490302 427.0035095214844,222.44340027564613 371.6607666015625,269.114489595544 355.8485412597656,217.25772368454636 354.9700927734375,216.86017129908942 "/>
   <polygon stroke="null" id="svg_10" fill="#CCCCCC" points="427.0035095214844,222.44340027564613 430.2414855957031,305.87572805687523 469.16937255859375,401.34922595838725 484.9815979003906,385.79219618508796 535.6509399414062,474.40157809384255 571.8784790039062,449.55868977746286 482.9453430175781,251.42787842140388 "/>
   <g stroke="null" id="svg_11">
    <path stroke="null" id="svg_12" fill="#333333" d="m13.176843,551.483142l772.124326,0c7.277131,0 13.176843,-5.804499 13.176843,-12.964188s-5.899712,-12.964188 -13.176843,-12.964188l-17.714947,0l-158.501605,-222.389418c-2.466705,-3.460574 -6.491791,-5.521016 -10.789199,-5.521016c-4.295651,0 -8.322494,2.060442 -10.789199,5.521016l-42.213333,59.225599l-124.791727,-264.666501c-2.159245,-4.578951 -6.823848,-7.508858 -11.954032,-7.508858c-5.130184,0 -9.794786,2.929907 -11.954032,7.508858l-110.181244,233.714933l-66.181131,-140.374504c-2.159245,-4.578951 -6.822091,-7.508858 -11.954032,-7.508858c-5.130184,0 -9.794786,2.929907 -11.954032,7.508858l-157.700453,334.489891l-25.445362,0c-7.277131,0 -13.176843,5.804499 -13.176843,12.964188s5.899712,12.964188 13.176843,12.964188zm263.807417,-116.534226c5.899712,4.191754 14.13436,2.883236 18.396629,-2.919535c4.260512,-5.804499 2.932287,-13.907981 -2.967425,-18.099736l-11.862672,-8.43018l72.219639,-153.191765l6.263393,20.538732c1.280789,4.200397 4.634735,7.479472 8.911059,8.715392c1.221054,0.352626 2.468462,0.523753 3.708842,0.523753c3.106221,0 6.156221,-1.080349 8.575489,-3.121777l47.366357,-39.945258l46.426409,33.829618l81.322202,172.473835l-6.516388,4.630808c-5.899712,4.191754 -7.227937,12.295236 -2.967425,18.099736c4.260512,5.804499 12.495161,7.11129 18.396629,2.919535l20.150028,-14.31765l36.856507,68.896883l-441.230968,0l61.822232,-115.566233l35.129462,24.963841zm321.312915,-101.760237l12.909792,18.111836l-15.601382,14.251965l-12.402044,-11.185502l15.093634,-21.178298zm-30.355932,42.588223l18.816531,16.970987c2.519412,2.271326 5.711722,3.406989 8.902275,3.406989c3.22042,0 6.439084,-1.154677 8.965524,-3.464031l21.852476,-19.961393l108.921538,152.825311l-84.352876,0l-50.386489,-94.189151c-1.777995,-3.324018 -4.93341,-5.724986 -8.651036,-6.584079c-3.717627,-0.859094 -7.628513,-0.088156 -10.724193,2.112298l-4.177938,2.967935l-18.997493,-40.290969l9.831682,-13.793897zm-159.390602,-241.787301l42.297665,89.708727l-16.008985,-11.664313c-4.940438,-3.598859 -11.751987,-3.360318 -16.418346,0.57561l-39.966242,33.703433l-8.977822,-29.442536l39.073731,-82.880921zm-200.270439,93.342157l22.98217,48.747077l-29.148933,19.458383l-20.940638,-10.713605l27.107401,-57.491855zm-38.207573,81.038278l26.857919,13.740311c1.911521,0.978364 3.996976,1.46236 6.07716,1.46236c2.593203,0 5.175864,-0.751923 7.398358,-2.236755l32.091761,-21.423754l29.391387,62.340461l-13.099538,27.786577l-13.811088,-9.813026c-3.09568,-2.198726 -7.01008,-2.969663 -10.724193,-2.112298c-3.717627,0.857365 -6.873041,3.260061 -8.651036,6.584079l-75.352214,140.858501l-82.576637,0l102.398123,-217.186457z"/>
    <path stroke="null" id="svg_13" fill="#333333" d="m785.301169,574.816953l-772.124326,0c-7.277131,0 -13.176843,5.804499 -13.176843,12.964188s5.899712,12.964188 13.176843,12.964188l772.124326,0c7.277131,0 13.176843,-5.804499 13.176843,-12.964188s-5.899712,-12.964188 -13.176843,-12.964188z"/>
    <path stroke="null" id="svg_14" fill="#333333" d="m456.693553,405.527123c1.467022,4.238425 5.054637,7.431073 9.487327,8.444008c4.43269,1.014664 9.083237,-0.293855 12.300143,-3.460574l4.195507,-4.127798l9.62788,14.884617c2.512385,3.882342 6.774654,6.005012 11.13004,6.005012c2.419268,0 4.868404,-0.655124 7.061031,-2.029328c6.140409,-3.844314 7.950028,-11.856183 4.042655,-17.897494l-18.44758,-28.519486c-2.146947,-3.317104 -5.706451,-5.496816 -9.67883,-5.927227c-3.975893,-0.430411 -7.928945,0.938607 -10.755817,3.719858l-0.848589,0.834894l-32.70141,-94.374106c-2.347235,-6.775949 -9.835195,-10.397279 -16.724049,-8.087925c-6.888853,2.311083 -10.569585,9.67647 -8.220593,16.454148l39.532285,114.081401z"/>
    <path stroke="null" id="svg_15" fill="#333333" d="m365.081116,476.468891c0.444499,0.043214 0.887241,0.065685 1.326469,0.065685c6.686808,0 12.4161,-4.98862 13.096025,-11.674684l10.541474,-103.708322c0.723848,-7.125118 -4.559188,-13.47757 -11.80118,-14.189736c-7.247263,-0.717352 -13.698646,4.485609 -14.422493,11.610727l-10.541474,103.708322c-0.723848,7.123389 4.559188,13.475842 11.80118,14.188008z"/>
    <path stroke="null" id="svg_16" fill="#333333" d="m150.291553,455.795331c4.833266,0 9.487327,-2.627409 11.79591,-7.170061l34.258034,-67.410323c3.255559,-6.404309 0.616676,-14.191465 -5.892684,-17.392755c-6.505846,-3.199562 -14.422493,-0.606724 -17.678052,5.797585l-34.258034,67.410323c-3.255559,6.404309 -0.616676,14.191465 5.892684,17.392755c1.890438,0.931693 3.902102,1.372475 5.882143,1.372475z"/>
    <path stroke="null" id="svg_17" fill="#333333" d="m610.151063,201.70588c55.943603,0 101.458174,-44.778307 101.458174,-99.819066s-45.512814,-99.820794 -101.458174,-99.820794s-101.458174,44.780036 -101.458174,99.820794s45.514571,99.819066 101.458174,99.819066zm0,-173.711483c41.412181,0 75.104489,33.148566 75.104489,73.892417s-33.690551,73.890689 -75.104489,73.890689s-75.104489,-33.146837 -75.104489,-73.890689s33.692308,-73.892417 75.104489,-73.892417z"/>
   </g>
  </g>
 </g>
</svg>