<?xml version="1.0" standalone="no"?><!DOCTYPE svg PUBLIC "-//W3C//DTD SVG 1.1//EN" "http://www.w3.org/Graphics/SVG/1.1/DTD/svg11.dtd"><svg t="1496068868377" class="icon" style="" viewBox="0 0 1024 1024" version="1.1" xmlns="http://www.w3.org/2000/svg" p-id="1041" xmlns:xlink="http://www.w3.org/1999/xlink" width="200" height="200"><defs><style type="text/css"></style></defs><path d="M512 96C282.2 96 96 282.2 96 512s186.2 416 416 416c229.8 0 416-186.2 416-416S741.8 96 512 96zM512 893.4c-210.2 0-381.4-171-381.4-381.4S301.8 130.6 512 130.6 893.4 301.8 893.4 512 722.2 893.4 512 893.4zM528.2 256 494.6 256 494.6 495.8 256 495.8 256 529.4 494.6 529.4 494.6 768 528.2 768 528.2 529.4 768 529.4 768 495.8 528.2 495.8Z" p-id="1042"></path></svg>