<?xml version="1.0" standalone="no"?><!DOCTYPE svg PUBLIC "-//W3C//DTD SVG 1.1//EN" "http://www.w3.org/Graphics/SVG/1.1/DTD/svg11.dtd"><svg t="1491450462505" class="icon" style="" viewBox="0 0 1024 1024" version="1.1" xmlns="http://www.w3.org/2000/svg" p-id="4387" xmlns:xlink="http://www.w3.org/1999/xlink" width="16" height="16"><defs><style type="text/css"></style></defs><path d="M512 889.924c-208.396 0-377.924-169.545-377.924-377.924 0-208.396 169.529-377.924 377.924-377.924 208.38 0 377.924 169.529 377.924 377.924 0 208.38-169.545 377.924-377.924 377.924v0zM512 179.42c-183.379 0-332.58 149.201-332.58 332.58s149.201 332.58 332.58 332.58 332.58-149.201 332.58-332.58-149.201-332.58-332.58-332.58v0zM512 179.42z" p-id="4388" fill="#1296db"></path><path d="M311.599 615.599c0 13.987-11.332 25.319-25.319 25.319s-25.319-11.332-25.319-25.319 11.332-25.334 25.319-25.334 25.319 11.347 25.319 25.334v0zM311.599 615.599z" p-id="4389" fill="#1296db"></path><path d="M280.698 465.745c0 13.987-11.332 25.319-25.319 25.319s-25.319-11.332-25.319-25.319c0-13.987 11.332-25.319 25.319-25.319s25.319 11.347 25.319 25.319v0zM280.698 465.745z" p-id="4390" fill="#1296db"></path><path d="M799.373 465.745c0 13.987-11.332 25.319-25.334 25.319-13.972 0-25.305-11.332-25.305-25.319 0-13.987 11.332-25.319 25.305-25.319 14.002 0 25.334 11.347 25.334 25.319v0zM799.373 465.745z" p-id="4391" fill="#1296db"></path><path d="M714.813 324.054c0 13.987-11.332 25.334-25.319 25.334-13.972 0-25.319-11.347-25.319-25.334 0-13.972 11.347-25.319 25.319-25.319 13.987 0 25.319 11.347 25.319 25.319v0zM714.813 324.054z" p-id="4392" fill="#1296db"></path><path d="M367.821 324.054c0 13.987-11.332 25.334-25.319 25.334s-25.319-11.347-25.319-25.334c0-13.972 11.332-25.319 25.319-25.319s25.319 11.347 25.319 25.319v0zM367.821 324.054z" p-id="4393" fill="#1296db"></path><path d="M539.823 247.065c0 13.987-11.347 25.319-25.334 25.319-13.972 0-25.319-11.332-25.319-25.319s11.347-25.319 25.319-25.319c13.987 0 25.334 11.332 25.334 25.319v0zM539.823 247.065z" p-id="4394" fill="#1296db"></path><path d="M771.050 615.599c0 13.987-11.332 25.319-25.319 25.319s-25.334-11.332-25.334-25.319 11.347-25.334 25.334-25.334 25.319 11.347 25.319 25.334v0zM771.050 615.599z" p-id="4395" fill="#1296db"></path><path d="M618.345 599.609c-3.338-15.185-10.391-29.476-19.995-40.823-0.319-0.592-1.153-1.941-2.275-2.837l-124.64-150.945-23.954 184.715c-0.122 0.349-0.243 0.804-0.303 1.29-4.187 15.065-4.642 31.175-1.244 46.512 11.013 50.032 58.634 82.223 106.162 71.756 47.529-10.422 77.232-59.635 66.249-109.666v0zM532.146 677.099c-30.31 0-54.871-24.576-54.871-54.871 0-30.31 24.561-54.886 54.871-54.886s54.871 24.576 54.871 54.886c0 30.295-24.561 54.871-54.871 54.871v0zM532.146 677.099z" p-id="4396" fill="#1296db"></path></svg>