<?xml version="1.0" standalone="no"?><!DOCTYPE svg PUBLIC "-//W3C//DTD SVG 1.1//EN" "http://www.w3.org/Graphics/SVG/1.1/DTD/svg11.dtd"><svg t="1491673560545" class="icon" style="" viewBox="0 0 1024 1024" version="1.1" xmlns="http://www.w3.org/2000/svg" p-id="1012" xmlns:xlink="http://www.w3.org/1999/xlink" width="32" height="32"><defs><style type="text/css"></style></defs><path d="M914.361439 1008.813113 116.21535 1008.813113c-50.782593 0-92.097558-41.314964-92.097558-92.097558L24.117792 161.631214c0-50.782593 41.314964-92.097558 92.097558-92.097558L684.851255 69.533656l0 61.398372L116.21535 130.932028c-16.927531 0-30.699186 13.771655-30.699186 30.699186l0 755.084341c0 16.927531 13.771655 30.699186 30.699186 30.699186l798.146089 0c16.927531 0 30.699186-13.771655 30.699186-30.699186L945.060625 370.201483l61.398372 0 0 546.514071C1006.458997 967.498148 965.144032 1008.813113 914.361439 1008.813113z" p-id="1013" fill="#dbdbdb"></path><path d="M975.759811 331.168492" p-id="1014" fill="#dbdbdb"></path><path d="M144.750243 453.036074l97.608062-79.090313 195.312314 144.108119c0 0 269.691325-278.995225 530.065448-409.184333l37.193087 41.889039c0 0-325.44514 269.695419-492.835522 627.78198L144.750243 453.036074 144.750243 453.036074 144.750243 453.036074zM144.750243 453.036074" p-id="1015" fill="#dbdbdb"></path></svg>