<?xml version="1.0" standalone="no"?><!DOCTYPE svg PUBLIC "-//W3C//DTD SVG 1.1//EN" "http://www.w3.org/Graphics/SVG/1.1/DTD/svg11.dtd"><svg t="1491450381588" class="icon" style="" viewBox="0 0 1024 1024" version="1.1" xmlns="http://www.w3.org/2000/svg" p-id="3192" xmlns:xlink="http://www.w3.org/1999/xlink" width="16" height="16"><defs><style type="text/css"></style></defs><path d="M403.098413 670.024691c-102.941799 0-183.489242-11.197178-187.462434-11.558377-15.53157-2.167196-26.367549-16.615168-24.200353-32.146737 2.167196-15.53157 16.615168-26.367549 32.146737-24.200353 1.444797 0.361199 114.500176 15.892769 240.197531 9.752381 111.610582-5.417989 256.0903-28.895944 314.243386-110.526984l0.722399-0.722399c11.558377-17.698765 17.698765-37.925926 17.698765-59.236684 0-59.236684-48.039506-107.63739-107.637389-107.63739-59.236684 0-107.63739 48.039506-107.63739 107.63739 0 15.892769-12.641975 28.534744-28.534744 28.534744s-28.534744-12.641975-28.534745-28.534744c0-44.066314 16.976367-85.243034 48.039507-116.306173 31.063139-31.063139 72.239859-48.039506 116.306172-48.039506 44.066314 0 85.243034 16.976367 116.306173 48.039506 31.063139 31.063139 48.039506 72.239859 48.039506 116.306173 0 31.063139-8.668783 61.042681-24.922751 87.04903l-0.361199 0.722398-2.167196 3.250794c-32.146737 46.23351-85.243034 81.269841-158.56649 104.386596-55.985891 17.698765-123.891358 28.534744-201.910406 32.146737-20.58836 0.722399-41.537919 1.083598-61.765079 1.083598z" fill="#1296db" p-id="3193"></path><path d="M319.300176 581.892063c-38.287125 0-74.045855-4.334392-97.523809-7.223985-2.889594-0.361199-5.779189-0.722399-8.307584-1.083598-15.53157-1.805996-26.728748-15.892769-24.922751-31.785538 1.805996-15.53157 15.892769-26.728748 31.424338-24.922752 2.528395 0.361199 5.417989 0.722399 8.668783 1.083598 49.123104 5.779189 179.516049 21.671958 218.164374-34.313933l1.083598-1.805996c3.250794-4.695591 4.695591-10.11358 4.695591-15.892769 0-15.892769-13.003175-29.257143-29.257143-29.257143-15.892769 0-29.257143 13.003175-29.257143 29.257143 0 15.892769-12.641975 28.534744-28.534744 28.534744s-28.534744-12.641975-28.534744-28.534744c0-47.678307 38.648325-86.326631 86.326631-86.326631s85.965432 39.370723 85.965432 86.68783c0 15.53157-3.973192 30.70194-11.919576 44.066314v0.361199l-1.805997 3.250794c-25.283951 39.009524-72.239859 61.40388-140.145326 67.183069-12.280776 0.361199-24.200353 0.722399-36.11993 0.722398z" fill="#1296db" p-id="3194"></path></svg>